<svg id="svg" version="1.1" xmlns="http://www.w3.org/2000/svg" xmlns:xlink="http://www.w3.org/1999/xlink" width="400" height="412.6666666666667" viewBox="0, 0, 400,412.6666666666667"><g id="svgg"><path id="path0" d="M279.444 11.363 C 267.529 11.983,253.360 14.474,242.248 17.902 L 238.329 19.110 234.915 18.391 C 206.938 12.501,181.225 15.703,162.556 27.403 L 159.876 29.082 152.521 26.701 C 83.530 4.361,32.939 18.665,17.572 64.854 C 8.198 93.031,10.180 123.941,25.040 181.333 C 45.897 261.887,70.282 300.868,95.742 294.357 C 102.785 292.555,107.322 288.995,116.793 277.835 C 126.742 266.112,144.433 246.333,144.970 246.333 C 145.089 246.333,146.725 247.011,148.606 247.839 C 153.984 250.205,159.239 251.532,165.750 252.167 C 168.589 252.444,168.634 252.247,164.588 257.264 C 157.970 265.471,156.045 266.544,142.667 269.481 C 128.944 272.494,124.085 274.889,121.819 279.754 C 118.306 287.300,125.815 295.159,139.720 298.491 C 159.735 303.287,177.807 299.872,191.583 288.693 L 193.667 287.003 193.673 293.751 C 193.706 330.622,195.812 359.844,199.157 369.846 C 207.716 395.438,227.479 405.976,255.000 399.623 C 280.485 393.740,292.741 382.197,298.134 359.000 C 300.097 350.554,304.066 321.814,307.950 287.919 C 308.655 281.765,308.418 282.190,310.805 282.812 C 324.634 286.414,350.581 283.052,364.842 275.810 C 383.947 266.108,392.865 253.916,385.930 246.981 C 382.993 244.044,378.749 243.662,369.000 245.459 C 349.857 248.987,336.126 248.760,330.094 244.815 L 329.354 244.332 331.462 241.082 C 370.851 180.361,395.162 96.090,383.352 61.216 C 381.403 55.462,377.854 50.529,370.000 42.656 C 347.377 19.980,316.811 9.418,279.444 11.363 M295.833 22.668 C 323.140 24.372,344.733 33.510,361.990 50.664 C 373.187 61.795,374.847 66.112,374.808 84.000 C 374.725 122.536,354.844 181.263,325.863 228.583 C 322.591 233.927,322.820 233.734,321.583 232.184 L 320.667 231.036 321.841 229.033 C 329.446 216.055,331.191 201.334,328.185 175.500 C 326.152 158.028,326.209 153.842,328.711 136.833 C 332.090 113.861,331.102 106.654,322.152 89.000 C 308.266 61.608,286.507 39.475,261.833 27.643 C 259.422 26.487,258.032 25.651,258.333 25.538 C 263.493 23.614,284.820 21.981,295.833 22.668 M219.874 27.510 C 262.618 31.999,299.302 60.997,316.335 103.760 C 318.050 108.065,318.407 107.670,313.167 107.276 C 277.916 104.631,262.572 123.001,271.496 157.167 C 275.040 170.731,281.649 185.614,294.071 208.000 C 296.360 212.125,299.514 218.125,301.081 221.333 C 304.212 227.746,306.883 231.946,311.985 238.474 C 313.836 240.844,315.235 242.888,315.092 243.017 C 314.950 243.147,314.233 243.439,313.500 243.667 C 303.143 246.886,298.710 254.417,298.194 269.667 C 297.736 283.192,289.385 347.232,286.684 357.932 C 282.469 374.628,274.294 382.617,256.409 387.518 C 232.991 393.937,219.821 388.803,211.487 370.007 C 206.665 359.131,204.421 326.362,205.309 279.775 C 205.541 267.606,205.510 264.307,205.149 262.584 C 202.694 250.873,193.390 242.801,183.036 243.400 C 181.550 243.486,180.333 243.461,180.333 243.344 C 180.333 241.710,186.003 226.196,189.412 218.500 C 196.694 202.063,198.930 193.816,200.032 179.333 C 200.971 166.981,198.959 146.928,195.328 132.448 C 189.137 107.767,163.588 101.981,131.622 118.022 L 128.277 119.701 128.497 117.434 C 134.672 54.036,167.243 21.983,219.874 27.510 M107.500 28.497 C 120.327 29.827,139.878 34.036,148.454 37.314 L 149.407 37.678 147.120 40.091 C 125.803 62.578,114.848 100.107,116.968 143.384 C 117.280 149.750,117.366 156.086,117.226 162.384 C 117.010 172.131,116.824 174.725,115.623 184.667 C 113.097 205.586,118.898 223.337,132.757 237.096 L 135.372 239.693 133.936 241.284 C 133.146 242.160,130.316 245.267,127.647 248.188 C 121.622 254.782,114.800 262.568,107.781 270.862 C 99.500 280.646,95.963 283.330,90.978 283.611 C 73.755 284.585,51.969 242.185,35.194 175.044 C 22.170 122.919,20.132 97.246,27.053 72.500 C 36.360 39.225,64.185 24.005,107.500 28.497 M312.500 118.669 C 315.067 118.850,317.601 119.090,318.132 119.203 L 319.098 119.408 318.894 122.971 C 318.782 124.931,318.091 130.727,317.359 135.851 C 314.841 153.477,314.772 158.795,316.835 176.333 C 319.255 196.917,318.721 207.150,314.683 217.583 C 313.332 221.074,313.487 221.150,310.969 215.763 C 309.795 213.250,306.752 207.437,304.207 202.847 C 274.673 149.556,272.469 123.803,297.059 119.321 C 302.038 118.413,306.318 118.232,312.500 118.669 M171.419 121.153 C 181.070 123.701,184.171 129.592,187.306 151.333 C 190.860 175.984,188.948 191.044,179.524 212.634 C 175.576 221.677,172.886 228.708,170.650 235.833 L 169.080 240.833 166.790 240.745 C 141.586 239.775,123.435 214.726,126.986 185.814 C 128.148 176.353,128.364 173.021,128.563 161.514 C 128.689 154.247,128.609 147.273,128.340 142.031 L 127.921 133.867 128.940 132.956 C 137.898 124.953,161.243 118.466,171.419 121.153 M297.667 124.357 C 289.420 125.797,286.788 129.444,291.199 133.317 C 296.273 137.772,304.590 135.855,307.655 129.524 C 309.545 125.621,304.720 123.125,297.667 124.357 M162.833 127.227 C 156.797 128.583,156.369 133.383,161.885 137.865 C 168.027 142.856,179.000 140.048,179.000 133.486 C 179.000 129.408,169.500 125.730,162.833 127.227 M323.536 254.141 C 331.888 259.765,348.035 260.849,368.240 257.142 C 373.837 256.115,373.781 256.106,372.000 257.720 C 366.376 262.817,355.841 268.080,346.833 270.292 C 334.381 273.350,317.199 273.688,311.083 270.995 L 309.667 270.371 309.672 267.602 C 309.685 261.435,311.482 257.192,314.833 255.412 C 315.634 254.987,320.972 253.123,321.671 253.024 C 321.765 253.011,322.604 253.513,323.536 254.141 M186.817 255.356 C 192.793 257.592,195.897 266.243,192.500 271.192 C 186.440 280.019,176.555 286.363,165.458 288.545 C 156.668 290.273,141.140 288.339,135.001 284.752 L 133.503 283.876 134.959 283.241 C 135.760 282.891,139.611 281.868,143.517 280.966 C 161.652 276.778,164.972 274.991,172.791 265.214 C 181.263 254.620,182.510 253.744,186.817 255.356 " stroke="none" fill="#fafbfb" fill-rule="evenodd"></path><path id="path1" d="M279.667 22.889 C 273.425 23.327,264.526 24.449,260.075 25.358 L 258.316 25.718 262.908 28.003 C 292.206 42.588,318.819 73.378,328.781 104.216 C 331.534 112.736,331.499 119.029,328.590 138.500 C 326.607 151.774,326.571 161.237,328.444 176.833 C 331.320 200.779,329.992 213.305,323.141 226.871 L 321.014 231.083 321.696 232.042 C 322.687 233.433,322.691 233.430,325.824 228.311 C 363.984 165.950,385.917 81.329,369.576 59.508 C 350.544 34.096,316.646 20.289,279.667 22.889 M199.379 27.369 C 160.614 30.815,136.247 60.263,129.343 112.009 C 128.971 114.797,128.667 117.586,128.667 118.208 L 128.667 119.339 132.332 117.501 C 159.361 103.945,183.381 106.653,192.448 124.279 C 197.151 133.422,200.617 155.759,200.239 174.500 C 199.903 191.163,197.736 200.180,189.747 218.167 C 186.290 225.948,180.667 241.247,180.667 242.869 C 180.667 243.033,182.054 243.167,183.750 243.167 C 193.030 243.167,201.042 249.454,204.565 259.500 L 205.500 262.167 205.388 284.667 C 205.157 330.828,206.926 358.597,210.679 367.696 C 218.715 387.184,230.679 393.195,252.000 388.455 C 273.126 383.759,282.398 375.329,286.781 356.833 C 289.469 345.488,297.310 284.343,298.001 269.333 C 298.695 254.272,302.417 247.758,312.583 243.813 C 315.470 242.693,315.421 243.027,313.117 240.167 C 306.961 232.523,303.151 226.590,300.168 220.000 C 299.213 217.892,296.224 212.192,293.526 207.333 C 267.117 159.787,261.993 132.370,276.667 117.135 C 283.836 109.692,293.630 106.722,309.865 107.070 C 314.212 107.163,317.333 107.103,317.333 106.928 C 317.333 104.421,308.807 87.806,303.343 79.667 C 278.942 43.318,240.051 23.754,199.379 27.369 M83.000 28.362 C 42.901 32.325,23.560 56.927,23.536 104.000 C 23.529 117.159,24.168 122.600,28.038 142.333 C 44.468 226.106,72.120 287.050,92.015 283.336 C 97.092 282.388,100.183 279.655,112.379 265.333 C 116.516 260.475,122.811 253.301,126.367 249.392 C 129.924 245.483,133.342 241.693,133.964 240.971 L 135.094 239.657 131.773 236.244 C 118.709 222.816,112.763 204.519,115.337 185.667 C 116.833 174.705,117.479 160.302,116.996 148.667 C 116.301 131.963,116.235 126.866,116.638 121.333 C 119.119 87.324,129.219 59.688,145.967 41.081 C 147.898 38.936,148.881 37.608,148.605 37.515 C 127.620 30.469,100.278 26.654,83.000 28.362 M369.833 42.333 C 370.549 43.067,371.210 43.667,371.302 43.667 C 371.394 43.667,370.883 43.067,370.167 42.333 C 369.451 41.600,368.790 41.000,368.698 41.000 C 368.606 41.000,369.117 41.600,369.833 42.333 M299.833 119.046 C 282.530 121.232,277.122 131.660,282.306 152.844 C 284.906 163.467,291.760 179.759,299.832 194.500 C 300.434 195.600,302.869 200.025,305.242 204.333 C 307.616 208.642,310.351 213.929,311.319 216.083 C 313.409 220.732,313.232 220.660,314.562 217.391 C 318.686 207.252,319.112 198.073,316.527 175.000 C 314.559 157.429,314.607 153.635,317.008 137.000 C 318.158 129.025,319.174 119.710,318.918 119.483 C 318.172 118.825,304.129 118.503,299.833 119.046 M157.833 121.195 C 149.421 122.496,138.591 126.748,130.869 131.781 L 127.929 133.698 128.119 135.099 C 129.507 145.320,129.116 168.792,127.295 184.500 C 125.460 200.332,127.947 212.030,135.364 222.440 C 142.962 233.106,156.233 240.667,167.357 240.667 L 168.960 240.667 169.843 237.750 C 171.978 230.704,175.553 221.157,178.675 214.167 C 189.834 189.174,191.405 171.249,185.166 140.118 C 181.862 123.632,174.597 118.602,157.833 121.195 M305.154 124.479 C 310.358 126.046,308.505 132.111,301.880 135.196 C 295.275 138.271,285.091 131.348,290.064 127.164 C 293.233 124.498,300.763 123.158,305.154 124.479 M171.088 127.391 C 179.527 128.992,181.768 134.574,175.642 138.732 C 170.806 142.014,165.236 141.440,160.894 137.211 C 153.894 130.394,159.328 125.159,171.088 127.391 M348.417 247.896 C 348.738 247.980,349.262 247.980,349.583 247.896 C 349.904 247.813,349.642 247.744,349.000 247.744 C 348.358 247.744,348.096 247.813,348.417 247.896 M388.411 252.667 C 388.411 253.308,388.479 253.571,388.563 253.250 C 388.647 252.929,388.647 252.404,388.563 252.083 C 388.479 251.762,388.411 252.025,388.411 252.667 M318.241 254.314 C 312.332 256.242,310.676 258.477,309.972 265.470 C 309.508 270.085,309.670 270.450,312.570 271.312 C 323.639 274.604,346.494 271.911,358.833 265.863 C 364.637 263.018,375.660 255.592,372.823 256.438 C 356.884 261.191,332.455 260.218,323.755 254.483 C 321.674 253.111,321.903 253.119,318.241 254.314 M183.167 254.906 C 181.300 255.378,178.912 257.798,173.099 265.110 C 165.242 274.991,161.291 277.154,144.000 281.033 C 138.397 282.291,134.000 283.543,134.000 283.882 C 134.000 284.415,140.037 286.726,143.333 287.455 C 163.789 291.980,180.878 286.523,191.621 272.035 C 194.455 268.212,194.668 265.685,192.534 261.167 C 190.672 257.226,186.095 254.166,183.167 254.906 M193.762 315.167 C 193.765 316.083,193.829 316.419,193.906 315.912 C 193.982 315.405,193.980 314.655,193.901 314.245 C 193.822 313.835,193.760 314.250,193.762 315.167 " stroke="none" fill="#346494" fill-rule="evenodd"></path><path id="path2" d="M277.500 0.222 C 264.508 1.294,253.068 3.183,243.758 5.792 L 239.682 6.934 235.582 6.307 C 206.536 1.866,182.408 4.584,162.759 14.510 L 158.011 16.908 152.341 15.140 C 48.168 -17.335,-14.134 32.655,3.171 134.833 C 13.232 194.240,32.694 253.356,51.358 281.201 C 68.890 307.356,92.053 314.587,112.141 300.174 L 114.724 298.321 117.223 300.655 C 130.105 312.685,158.940 316.598,180.174 309.196 C 185.025 307.505,184.655 307.205,184.663 312.833 C 184.671 317.994,185.256 331.225,185.842 339.500 C 189.758 394.806,211.382 418.785,250.598 411.307 C 296.854 402.487,312.944 377.261,316.489 308.000 C 316.756 302.775,317.071 298.030,317.188 297.456 L 317.401 296.411 322.284 296.581 C 352.947 297.642,384.549 284.628,396.501 266.017 C 401.175 258.740,401.451 248.643,397.152 242.166 C 391.530 233.697,382.948 231.546,366.613 234.514 C 357.713 236.130,349.000 237.114,349.000 236.501 C 349.000 236.410,350.524 233.673,352.386 230.418 C 386.861 170.164,405.826 96.089,395.805 60.833 C 390.493 42.147,367.663 20.793,341.167 9.730 C 323.201 2.229,298.280 -1.493,277.500 0.222 M299.833 11.341 C 332.414 14.060,359.108 27.735,378.199 51.486 C 399.425 77.893,378.236 166.310,333.445 238.234 C 328.990 245.388,329.246 244.387,331.603 245.444 C 338.804 248.676,352.141 248.573,369.667 245.151 C 381.077 242.922,386.430 244.477,388.190 250.532 C 391.115 260.594,370.330 276.889,348.333 281.779 C 336.728 284.359,320.178 285.102,312.376 283.394 C 310.474 282.978,308.876 282.681,308.824 282.735 C 308.772 282.789,308.260 286.883,307.686 291.833 C 300.050 357.643,297.347 370.164,288.343 381.451 C 275.017 398.158,241.924 406.703,222.754 398.389 C 212.919 394.123,205.322 385.457,199.913 372.333 C 195.945 362.704,194.175 343.672,193.772 306.289 L 193.568 287.411 190.368 289.823 C 176.367 300.372,158.467 303.379,138.874 298.476 C 118.013 293.255,114.276 277.949,132.385 271.899 C 133.788 271.430,137.688 270.426,141.052 269.668 C 156.379 266.212,157.857 265.430,164.336 257.341 C 168.199 252.518,168.262 252.333,166.044 252.333 C 161.823 252.333,153.897 250.378,148.678 248.049 L 145.009 246.412 141.242 250.456 C 133.588 258.673,124.057 269.469,115.456 279.667 C 94.649 304.336,75.202 299.940,55.843 266.190 C 38.928 236.701,19.922 173.107,12.600 121.500 C 11.124 111.094,11.559 91.569,13.525 80.006 C 22.435 27.595,65.043 6.116,131.167 20.701 C 140.143 22.681,149.495 25.305,156.487 27.804 L 159.791 28.984 162.462 27.271 C 180.232 15.872,206.821 12.363,233.333 17.919 C 238.488 18.999,238.340 19.005,243.000 17.511 C 251.956 14.638,266.187 12.082,278.000 11.225 C 281.652 10.960,296.199 11.037,299.833 11.341 " stroke="none" fill="#040404" fill-rule="evenodd"></path><path id="path3" d="M212.417 15.563 C 212.737 15.647,213.262 15.647,213.583 15.563 C 213.904 15.479,213.642 15.411,213.000 15.411 C 212.358 15.411,212.096 15.479,212.417 15.563 M287.167 60.000 C 288.440 61.283,289.557 62.333,289.649 62.333 C 289.740 62.333,288.773 61.283,287.500 60.000 C 286.227 58.717,285.110 57.667,285.018 57.667 C 284.926 57.667,285.893 58.717,287.167 60.000 M374.744 79.333 C 374.744 79.975,374.813 80.237,374.896 79.917 C 374.980 79.596,374.980 79.071,374.896 78.750 C 374.813 78.429,374.744 78.692,374.744 79.333 M386.455 82.833 C 386.456 84.667,386.512 85.374,386.579 84.405 C 386.647 83.437,386.646 81.937,386.578 81.072 C 386.509 80.207,386.454 81.000,386.455 82.833 M374.744 86.667 C 374.744 87.308,374.813 87.571,374.896 87.250 C 374.980 86.929,374.980 86.404,374.896 86.083 C 374.813 85.763,374.744 86.025,374.744 86.667 M165.587 126.902 C 166.002 126.982,166.602 126.979,166.921 126.896 C 167.239 126.812,166.900 126.747,166.167 126.751 C 165.433 126.754,165.173 126.823,165.587 126.902 M128.751 150.167 C 128.754 150.900,128.823 151.161,128.902 150.746 C 128.982 150.331,128.979 149.731,128.896 149.413 C 128.812 149.094,128.747 149.433,128.751 150.167 M117.095 151.833 C 117.098 152.750,117.163 153.085,117.239 152.579 C 117.316 152.072,117.314 151.322,117.235 150.912 C 117.156 150.502,117.093 150.917,117.095 151.833 M315.095 155.167 C 315.098 156.083,315.163 156.419,315.239 155.912 C 315.316 155.405,315.314 154.655,315.235 154.245 C 315.156 153.835,315.093 154.250,315.095 155.167 M326.779 157.333 C 326.779 158.708,326.838 159.271,326.909 158.583 C 326.981 157.896,326.981 156.771,326.909 156.083 C 326.838 155.396,326.779 155.958,326.779 157.333 M315.095 159.167 C 315.098 160.083,315.163 160.419,315.239 159.912 C 315.316 159.405,315.314 158.655,315.235 158.245 C 315.156 157.835,315.093 158.250,315.095 159.167 M117.100 162.333 C 117.100 163.342,117.162 163.754,117.239 163.250 C 117.315 162.746,117.315 161.921,117.239 161.417 C 117.162 160.912,117.100 161.325,117.100 162.333 M128.757 164.000 C 128.757 164.825,128.822 165.162,128.902 164.750 C 128.981 164.337,128.981 163.662,128.902 163.250 C 128.822 162.837,128.757 163.175,128.757 164.000 M126.448 194.167 C 126.449 195.633,126.507 196.192,126.578 195.408 C 126.648 194.624,126.647 193.424,126.576 192.741 C 126.504 192.059,126.446 192.700,126.448 194.167 M377.254 244.236 C 377.669 244.315,378.269 244.312,378.587 244.229 C 378.906 244.146,378.567 244.080,377.833 244.084 C 377.100 244.088,376.839 244.156,377.254 244.236 M197.333 248.438 C 197.333 248.495,197.821 248.983,198.417 249.521 L 199.500 250.500 198.521 249.417 C 197.608 248.407,197.333 248.180,197.333 248.438 M344.429 259.580 C 345.490 259.646,347.140 259.646,348.096 259.579 C 349.051 259.512,348.183 259.457,346.167 259.458 C 344.150 259.459,343.368 259.514,344.429 259.580 M168.146 270.750 L 167.167 271.833 168.250 270.854 C 169.260 269.942,169.487 269.667,169.229 269.667 C 169.172 269.667,168.684 270.154,168.146 270.750 M205.443 275.167 C 205.444 276.450,205.504 276.934,205.577 276.243 C 205.649 275.551,205.648 274.501,205.574 273.909 C 205.500 273.317,205.441 273.883,205.443 275.167 M101.484 277.750 L 100.167 279.167 101.583 277.849 C 102.901 276.624,103.153 276.333,102.901 276.333 C 102.847 276.333,102.209 276.971,101.484 277.750 M89.583 295.235 C 89.996 295.315,90.671 295.315,91.083 295.235 C 91.496 295.156,91.158 295.091,90.333 295.091 C 89.508 295.091,89.171 295.156,89.583 295.235 M193.770 311.833 C 193.772 312.933,193.834 313.343,193.908 312.744 C 193.982 312.145,193.981 311.245,193.905 310.744 C 193.829 310.243,193.768 310.733,193.770 311.833 M205.437 314.833 C 205.438 315.933,205.501 316.343,205.575 315.744 C 205.649 315.145,205.648 314.245,205.572 313.744 C 205.495 313.243,205.435 313.733,205.437 314.833 M205.744 326.333 C 205.744 326.975,205.813 327.237,205.896 326.917 C 205.980 326.596,205.980 326.071,205.896 325.750 C 205.813 325.429,205.744 325.692,205.744 326.333 " stroke="none" fill="#7990a3" fill-rule="evenodd"></path><path id="path4" d="M282.587 11.236 C 283.002 11.315,283.602 11.312,283.921 11.229 C 284.239 11.146,283.900 11.080,283.167 11.084 C 282.433 11.088,282.173 11.156,282.587 11.236 M210.417 15.563 C 210.737 15.647,211.262 15.647,211.583 15.563 C 211.904 15.479,211.642 15.411,211.000 15.411 C 210.358 15.411,210.096 15.479,210.417 15.563 M286.431 22.581 C 287.676 22.645,289.626 22.645,290.764 22.580 C 291.902 22.515,290.883 22.462,288.500 22.463 C 286.117 22.463,285.185 22.517,286.431 22.581 M278.083 22.896 C 278.404 22.980,278.929 22.980,279.250 22.896 C 279.571 22.813,279.308 22.744,278.667 22.744 C 278.025 22.744,277.762 22.813,278.083 22.896 M91.099 27.915 C 92.528 27.977,94.778 27.977,96.099 27.914 C 97.419 27.851,96.250 27.800,93.500 27.800 C 90.750 27.800,89.669 27.852,91.099 27.915 M148.784 37.561 C 148.909 37.687,148.522 38.324,147.923 38.978 L 146.833 40.167 148.070 39.031 C 149.143 38.045,149.432 37.333,148.758 37.333 C 148.647 37.333,148.658 37.436,148.784 37.561 M41.823 45.750 L 39.833 47.833 41.917 45.844 C 43.063 44.750,44.000 43.812,44.000 43.760 C 44.000 43.514,43.671 43.815,41.823 45.750 M156.667 46.500 C 155.301 47.875,154.258 49.000,154.350 49.000 C 154.442 49.000,155.634 47.875,157.000 46.500 C 158.366 45.125,159.408 44.000,159.317 44.000 C 159.225 44.000,158.032 45.125,156.667 46.500 M294.994 51.417 C 298.239 54.745,298.667 55.151,298.667 54.911 C 298.667 54.862,297.054 53.249,295.083 51.327 L 291.500 47.833 294.994 51.417 M361.986 50.750 C 363.367 52.222,363.667 52.486,363.667 52.236 C 363.667 52.183,362.954 51.470,362.083 50.653 L 360.500 49.167 361.986 50.750 M289.667 62.438 C 289.667 62.495,290.154 62.983,290.750 63.521 L 291.833 64.500 290.854 63.417 C 289.942 62.407,289.667 62.180,289.667 62.438 M374.757 89.000 C 374.757 89.825,374.822 90.162,374.902 89.750 C 374.981 89.337,374.981 88.662,374.902 88.250 C 374.822 87.837,374.757 88.175,374.757 89.000 M11.744 99.000 C 11.744 99.642,11.813 99.904,11.896 99.583 C 11.980 99.263,11.980 98.737,11.896 98.417 C 11.813 98.096,11.744 98.358,11.744 99.000 M23.122 104.167 C 23.123 106.000,23.179 106.707,23.246 105.739 C 23.314 104.770,23.313 103.270,23.245 102.405 C 23.176 101.541,23.121 102.333,23.122 104.167 M301.587 107.236 C 302.002 107.315,302.602 107.312,302.921 107.229 C 303.239 107.146,302.900 107.080,302.167 107.084 C 301.433 107.088,301.173 107.156,301.587 107.236 M311.583 107.235 C 311.996 107.315,312.671 107.315,313.083 107.235 C 313.496 107.156,313.158 107.091,312.333 107.091 C 311.508 107.091,311.171 107.156,311.583 107.235 M11.744 109.667 C 11.744 110.308,11.813 110.571,11.896 110.250 C 11.980 109.929,11.980 109.404,11.896 109.083 C 11.813 108.763,11.744 109.025,11.744 109.667 M330.458 119.167 C 330.459 121.183,330.514 121.965,330.580 120.904 C 330.646 119.844,330.646 118.194,330.579 117.238 C 330.512 116.282,330.457 117.150,330.458 119.167 M187.167 117.333 C 187.883 118.067,188.544 118.667,188.635 118.667 C 188.727 118.667,188.216 118.067,187.500 117.333 C 186.784 116.600,186.123 116.000,186.031 116.000 C 185.940 116.000,186.451 116.600,187.167 117.333 M305.925 118.578 C 306.709 118.648,307.909 118.647,308.592 118.576 C 309.275 118.504,308.633 118.446,307.167 118.448 C 305.700 118.449,305.141 118.507,305.925 118.578 M162.587 120.569 C 163.002 120.649,163.602 120.646,163.921 120.562 C 164.239 120.479,163.900 120.414,163.167 120.417 C 162.433 120.421,162.173 120.489,162.587 120.569 M165.587 120.569 C 166.002 120.649,166.602 120.646,166.921 120.562 C 167.239 120.479,166.900 120.414,166.167 120.417 C 165.433 120.421,165.173 120.489,165.587 120.569 M116.433 126.333 C 116.433 127.342,116.496 127.754,116.572 127.250 C 116.648 126.746,116.648 125.921,116.572 125.417 C 116.496 124.912,116.433 125.325,116.433 126.333 M305.315 132.583 L 304.167 133.833 305.417 132.685 C 306.580 131.615,306.820 131.333,306.565 131.333 C 306.510 131.333,305.947 131.896,305.315 132.583 M116.417 134.833 C 116.421 135.567,116.489 135.827,116.569 135.413 C 116.649 134.998,116.646 134.398,116.562 134.079 C 116.479 133.761,116.414 134.100,116.417 134.833 M268.791 139.500 C 268.792 141.517,268.847 142.299,268.913 141.238 C 268.980 140.177,268.979 138.527,268.912 137.571 C 268.845 136.615,268.791 137.483,268.791 139.500 M128.084 137.500 C 128.088 138.233,128.156 138.494,128.236 138.079 C 128.315 137.665,128.312 137.065,128.229 136.746 C 128.146 136.427,128.080 136.767,128.084 137.500 M116.751 140.833 C 116.754 141.567,116.823 141.827,116.902 141.413 C 116.982 140.998,116.979 140.398,116.896 140.079 C 116.812 139.761,116.747 140.100,116.751 140.833 M128.417 143.833 C 128.421 144.567,128.489 144.827,128.569 144.413 C 128.649 143.998,128.646 143.398,128.562 143.079 C 128.479 142.761,128.414 143.100,128.417 143.833 M117.103 148.500 C 117.105 149.600,117.167 150.010,117.242 149.411 C 117.316 148.812,117.314 147.912,117.238 147.411 C 117.162 146.910,117.101 147.400,117.103 148.500 M128.804 157.000 C 128.804 160.208,128.854 161.521,128.915 159.917 C 128.976 158.313,128.976 155.688,128.915 154.083 C 128.854 152.479,128.804 153.792,128.804 157.000 M326.757 153.667 C 326.757 154.492,326.822 154.829,326.902 154.417 C 326.981 154.004,326.981 153.329,326.902 152.917 C 326.822 152.504,326.757 152.842,326.757 153.667 M326.757 161.000 C 326.757 161.825,326.822 162.162,326.902 161.750 C 326.981 161.337,326.981 160.662,326.902 160.250 C 326.822 159.837,326.757 160.175,326.757 161.000 M188.411 162.667 C 188.411 163.308,188.479 163.571,188.563 163.250 C 188.647 162.929,188.647 162.404,188.563 162.083 C 188.479 161.762,188.411 162.025,188.411 162.667 M117.100 165.667 C 117.100 166.675,117.162 167.087,117.239 166.583 C 117.315 166.079,117.315 165.254,117.239 164.750 C 117.162 164.246,117.100 164.658,117.100 165.667 M200.077 165.000 C 200.077 165.642,200.146 165.904,200.230 165.583 C 200.314 165.262,200.314 164.737,200.230 164.417 C 200.146 164.096,200.077 164.358,200.077 165.000 M188.795 172.000 C 188.795 174.292,188.848 175.229,188.913 174.083 C 188.979 172.938,188.979 171.063,188.913 169.917 C 188.848 168.771,188.795 169.708,188.795 172.000 M128.417 169.833 C 128.421 170.567,128.489 170.827,128.569 170.413 C 128.649 169.998,128.646 169.398,128.562 169.079 C 128.479 168.761,128.414 169.100,128.417 169.833 M200.084 178.500 C 200.088 179.233,200.156 179.494,200.236 179.079 C 200.315 178.665,200.312 178.065,200.229 177.746 C 200.146 177.427,200.080 177.767,200.084 178.500 M329.796 196.167 C 329.797 198.550,329.850 199.481,329.914 198.236 C 329.978 196.991,329.978 195.041,329.913 193.903 C 329.848 192.765,329.796 193.783,329.796 196.167 M114.773 194.333 C 114.773 195.525,114.834 196.012,114.908 195.417 C 114.982 194.821,114.982 193.846,114.908 193.250 C 114.834 192.654,114.773 193.142,114.773 194.333 M126.417 197.833 C 126.421 198.567,126.489 198.827,126.569 198.413 C 126.649 197.998,126.646 197.398,126.562 197.079 C 126.479 196.761,126.414 197.100,126.417 197.833 M167.833 240.667 L 166.500 240.905 167.730 240.953 C 168.407 240.979,169.053 240.850,169.167 240.667 C 169.280 240.483,169.326 240.355,169.270 240.381 C 169.213 240.407,168.567 240.535,167.833 240.667 M183.083 243.239 C 183.588 243.315,184.412 243.315,184.917 243.239 C 185.421 243.162,185.008 243.100,184.000 243.100 C 182.992 243.100,182.579 243.162,183.083 243.239 M298.112 268.333 C 298.112 269.708,298.171 270.271,298.243 269.583 C 298.315 268.896,298.315 267.771,298.243 267.083 C 298.171 266.396,298.112 266.958,298.112 268.333 M205.440 271.000 C 205.440 272.192,205.501 272.679,205.574 272.083 C 205.648 271.487,205.648 270.512,205.574 269.917 C 205.501 269.321,205.440 269.808,205.440 271.000 M323.250 272.912 C 324.212 272.980,325.787 272.980,326.750 272.912 C 327.712 272.845,326.925 272.790,325.000 272.790 C 323.075 272.790,322.287 272.845,323.250 272.912 M68.000 283.438 C 68.000 283.495,68.487 283.983,69.083 284.521 L 70.167 285.500 69.188 284.417 C 68.275 283.407,68.000 283.180,68.000 283.438 M109.649 285.917 L 108.500 287.167 109.750 286.018 C 110.913 284.949,111.153 284.667,110.899 284.667 C 110.843 284.667,110.281 285.229,109.649 285.917 M154.583 289.235 C 154.996 289.315,155.671 289.315,156.083 289.235 C 156.496 289.156,156.158 289.091,155.333 289.091 C 154.508 289.091,154.171 289.156,154.583 289.235 M157.917 289.235 C 158.329 289.315,159.004 289.315,159.417 289.235 C 159.829 289.156,159.492 289.091,158.667 289.091 C 157.842 289.091,157.504 289.156,157.917 289.235 M205.140 295.333 C 205.140 298.908,205.189 300.371,205.249 298.583 C 205.308 296.796,205.308 293.871,205.249 292.083 C 205.189 290.296,205.140 291.758,205.140 295.333 M193.776 307.833 C 193.778 309.117,193.838 309.601,193.910 308.909 C 193.982 308.218,193.981 307.168,193.907 306.576 C 193.834 305.984,193.775 306.550,193.776 307.833 M205.443 318.833 C 205.444 320.117,205.504 320.601,205.577 319.909 C 205.649 319.218,205.648 318.168,205.574 317.576 C 205.500 316.984,205.441 317.550,205.443 318.833 M205.762 328.833 C 205.765 329.750,205.829 330.085,205.906 329.579 C 205.982 329.072,205.980 328.322,205.901 327.912 C 205.822 327.502,205.760 327.917,205.762 328.833 M206.084 335.833 C 206.088 336.567,206.156 336.827,206.236 336.413 C 206.315 335.998,206.312 335.398,206.229 335.079 C 206.146 334.761,206.080 335.100,206.084 335.833 M206.411 341.333 C 206.411 341.975,206.479 342.238,206.563 341.917 C 206.647 341.596,206.647 341.071,206.563 340.750 C 206.479 340.429,206.411 340.692,206.411 341.333 M238.583 390.241 C 239.179 390.315,240.154 390.315,240.750 390.241 C 241.346 390.167,240.858 390.107,239.667 390.107 C 238.475 390.107,237.987 390.167,238.583 390.241 " stroke="none" fill="#8fabc4" fill-rule="evenodd"></path></g></svg>